<svg width="45" height="44" viewBox="0 0 45 44" fill="none" xmlns="http://www.w3.org/2000/svg">
<path opacity="0.02" d="M13.2751 15.6255L32.5591 20.9821L25.3821 32.9449C25.2553 33.1562 25.1883 33.3981 25.1883 33.6445C25.1883 38.8584 29.4299 43.1 34.6439 43.1C39.8578 43.1 44.0995 38.8584 44.0995 33.6445C44.0995 33.3981 44.0324 33.1562 43.9057 32.9449L43.82 32.9964L43.9057 32.9449L37.5628 22.3719L42.376 23.7089C42.4976 23.7427 42.6201 23.7589 42.7407 23.7589C43.3362 23.7589 43.8828 23.3647 44.0501 22.7627L43.9538 22.7359L44.0501 22.7627C44.251 22.0391 43.8275 21.2896 43.1038 21.0886L34.9936 18.8359L23.8598 15.7432V1.5539C23.8598 1.19665 23.7945 0.786743 23.591 0.462843C23.3833 0.132241 23.0364 -0.1 22.5 -0.1C22.2 -0.1 21.9598 -0.0246256 21.7701 0.105052C21.581 0.234291 21.4485 0.413044 21.3559 0.610013C21.1724 1.00072 21.1402 1.47613 21.1402 1.82687V14.9878L10.7059 12.0894L2.62404 9.84445C1.90062 9.64337 1.15095 10.0671 0.949892 10.7907L0.949886 10.7907C0.74901 11.5143 1.17252 12.2638 1.89619 12.4648L8.27126 14.2356L1.0943 26.1983C1.09429 26.1983 1.09429 26.1984 1.09428 26.1984C0.967472 26.4096 0.900473 26.6514 0.90064 26.8978C0.90064 26.8978 0.90064 26.8978 0.90064 26.8978L1.00064 26.8978C1.00047 29.3968 1.9736 31.7461 3.74071 33.5132C5.5079 35.2804 7.85728 36.2535 10.3562 36.2535C15.5149 36.2535 19.7118 32.0567 19.7118 26.8979C19.7118 26.6697 19.6497 26.4456 19.5322 26.2498L13.2751 15.6255ZM41.2408 35.0042C40.6098 38.0687 37.8921 40.3805 34.6439 40.3805C31.3957 40.3805 28.678 38.0687 28.0471 35.0042H41.2408ZM28.9494 32.2846L34.6439 22.793L40.3383 32.2846H28.9494ZM16.0507 25.5381H4.66159L10.3562 16.0465L16.0507 25.5381ZM10.3561 33.634C7.10784 33.634 4.39015 31.3222 3.75914 28.2577H16.9531C16.322 31.3222 13.6042 33.634 10.3561 33.634Z" fill="#003466" stroke="#003466" stroke-width="0.2"/>
</svg>
